# File generated by ImageToStl.com - Free Image and 3D model conversion tools

mtllib vr_room.mtl

o obj1
v -2.45000005 5 0.99999994
v -2.45000005 5 5
v -5 5 5
v -5 5 0.99999994
v 5 3.50000001 -4.00000006
v 5 3.50000001 0
v 5 5 0
v 5 5 -4.00000006
v -5 3.50000001 -4.00000006
v -5 3.50000001 -5
v -5 5 -5
v -5 5 -4.00000006
v 2.4594143 0 0.99999994
v 2.45941401 0 5
v 5 0 5
v 5 0 0.99999994
v 5 3.50000001 0.99999994
v 5 3.50000001 5
v 5 5 5
v 5 5 0.99999994
v 2.4594143 3.50000001 -5
v 5 3.50000001 -5
v 5 5 -5
v 2.45941401 5 -5
v 2.4594143 0 -4.00000006
v 2.4594143 0 0
v 5 0 0
v 5 0 -4.00000006
v -5 3.50000001 0.99999994
v -5 3.50000001 0
v -5 5 0
v -5 5 0.99999994
v -2.45000005 5 -4.00000006
v -2.45000005 5 0
v -5 5 0
v -5 5 -4.00000006
v -5 3.50000001 5
v -5 3.50000001 0.99999994
v -5 5 0.99999994
v -5 5 5
v 5 3.50000001 0
v 5 3.50000001 0.99999994
v 5 5 0.99999994
v 5 5 0
v 2.4594143 0 0
v 2.4594143 0 0.99999994
v 5 0 0.99999994
v 5 0 0
v -2.45000005 5 0
v -2.45000005 5 0.99999994
v -5 5 0.99999994
v -5 5 0
v -2.45000005 5 -5
v -2.45000005 5 -4.00000006
v -5 5 -4.00000006
v -5 5 -5
v 2.4594143 0 -5
v 2.4594143 0 -4.00000006
v 5 0 -4.00000006
v 5 0 -5
v -5 3.50000001 0
v -5 3.50000001 -4.00000006
v -5 5 -4.00000006
v -5 5 0
v 5 3.50000001 -5
v 5 3.50000001 -4.00000006
v 5 5 -4.00000006
v 5 5 -5
v -2.45000005 0 -5
v -2.45000005 0 -4.00000006
v -2.00000003 0 -4.00000006
v -2.00000003 0 -5
v 2.01107547 5 -5
v 2.01107547 5 -4.00000006
v -2.00000003 5 -4.00000006
v -2.00000003 5 -5
v 2.01107547 5 0
v 2.01107547 5 0.99999994
v -2.00000003 5 0.99999994
v -2.00000003 5 0
v -2.45000005 0 0
v -2.45000005 0 0.99999994
v -2.00000003 0 0.99999994
v -2.00000003 0 0
v -2.00000003 5 -4.00000006
v -2.00000003 5.99999994 -4.00000006
v -2.00000003 5.99999994 0
v -2.00000003 5 0
v -2.45000005 0 -4.00000006
v -2.45000005 0 0
v -2.00000003 0 0
v -2.00000003 0 -4.00000006
v -2.45000005 3.50000001 -5
v -2.00000003 3.50000001 -5
v -2.00000003 5 -5
v -2.45000005 5 -5
v -2.45000005 0 0.99999994
v -2.45000005 0 5
v -2.00000003 0 5
v -2.00000003 0 0.99999994
v 2.01107547 5 0.99999994
v 2.01107562 5 5
v -2.00000003 5 5
v -2.00000003 5 0.99999994
v -2.45000005 5 0.99999994
v -2.45000005 4.69999999 0.99999994
v -2.45000005 4.69999999 5
v -2.45000005 5 5
v 2.01107547 5 0.99999994
v 2.01107547 4.69999999 0.99999994
v 2.01107562 4.69999999 5
v 2.01107562 5 5
v -2.00000003 5 0
v -2.00000003 4.69999999 0
v -2.00000003 4.69999999 -4.00000006
v -2.00000003 5 -4.00000006
v 2.45941401 5 0.99999994
v 2.45941401 4.69999999 0.99999994
v 2.45941401 4.69999999 0
v 2.45941401 5 0
v -2.00000003 0 -5
v -2.00000003 0 -4.00000006
v 2.01107562 0 -4.00000006
v 2.01107562 0 -5
v -2.00000003 0 0
v -2.00000003 0 0.99999994
v 2.01107562 0 0.99999994
v 2.01107562 0 0
v -2.00000003 0 -4.00000006
v -2.00000003 0 0
v 2.01107562 0 0
v 2.01107562 0 -4.00000006
v -2.00000003 3.50000001 -5
v 2.01107562 3.50000001 -5
v 2.01107547 5 -5
v -2.00000003 5 -5
v -2.00000003 0 0.99999994
v -2.00000003 0 5
v 2.01107547 0 5
v 2.01107562 0 0.99999994
v -2.00000003 0 -5
v 2.01107562 0 -5
v 2.01107562 3.50000001 -5
v -2.00000003 3.50000001 -5
v -2.45000005 0 -5
v -2.00000003 0 -5
v -2.00000003 3.50000001 -5
v -2.45000005 3.50000001 -5
v 5 0 -5
v 5 0 -4.00000006
v 5 3.50000001 -4.00000006
v 5 3.50000001 -5
v -6.00000024 3.50000001 -4.00000006
v -6.99999988 3.50000001 -4.00000006
v -6.99999988 0 -4.00000006
v -6.00000024 0 -4.00000006
v 5 0 0
v 5 0 0.99999994
v 5 3.50000001 0.99999994
v 5 3.50000001 0
v -6.00000024 3.50000001 0
v -6.99999988 3.50000001 0
v -6.99999988 3.50000001 -4.00000006
v -6.00000024 3.50000001 -4.00000006
v -5 0 0.99999994
v -5 0 0
v -5 3.50000001 0
v -5 3.50000001 0.99999994
v 2.4594143 0 -5
v 5 0 -5
v 5 3.50000001 -5
v 2.4594143 3.50000001 -5
v 6.00000024 3.50000001 -4.00000006
v 6.99999988 3.50000001 -4.00000006
v 6.99999988 3.50000001 0
v 6.00000024 3.50000001 0
v -5 0 -4.00000006
v -5 0 -5
v -5 3.50000001 -5
v -5 3.50000001 -4.00000006
v 6.00000024 0 5
v 6.99999988 0 5
v 6.99999988 0 0.99999994
v 6.00000024 0 0.99999994
v -5 0 -5
v -2.45000005 0 -5
v -2.45000005 3.50000001 -5
v -5 3.50000001 -5
v -5 0 0.99999994
v -5 0 5
v -2.45000005 0 5
v -2.45000005 0 0.99999994
v -5 3.50000001 -5
v -2.45000005 3.50000001 -5
v -2.45000005 5 -5
v -5 5 -5
v -5 0 -4.00000006
v -5 0 0
v -2.45000005 0 0
v -2.45000005 0 -4.00000006
v -5 0 0
v -5 0 0.99999994
v -2.45000005 0 0.99999994
v -2.45000005 0 0
v -5 0 -5
v -5 0 -4.00000006
v -2.45000005 0 -4.00000006
v -2.45000005 0 -5
v -2.45000005 5 -4.00000006
v -2.45000005 4.69999999 -4.00000006
v -2.45000005 4.69999999 0
v -2.45000005 5 0
v 2.45941401 5 -4.00000006
v 2.45941401 4.69999999 -4.00000006
v 2.45941401 4.69999999 -5
v 2.45941401 5 -5
v -2.45000005 5 0
v -2.45000005 4.69999999 0
v -2.45000005 4.69999999 0.99999994
v -2.45000005 5 0.99999994
v -2.00000003 5 0.99999994
v -2.00000003 4.69999999 0.99999994
v -2.00000003 4.69999999 0
v -2.00000003 5 0
v 2.01107562 0 -5
v 2.4594143 0 -5
v 2.4594143 3.50000001 -5
v 2.01107562 3.50000001 -5
v 5 5 -5
v 5 5 -4.00000006
v 2.45941401 5 -4.00000006
v 2.45941401 5 -5
v 5 5 0
v 5 5 0.99999994
v 2.45941401 5 0.99999994
v 2.45941401 5 0
v 5 5 -4.00000006
v 5 5 0
v 2.45941401 5 0
v 2.45941401 5 -4.00000006
v 5 5 0.99999994
v 5 5 5
v 2.4594143 5 5
v 2.45941401 5 0.99999994
v 2.01107562 0 -5
v 2.01107562 0 -4.00000006
v 2.4594143 0 -4.00000006
v 2.4594143 0 -5
v 2.01107562 0 0
v 2.01107562 0 0.99999994
v 2.4594143 0 0.99999994
v 2.4594143 0 0
v 2.01107562 0 -4.00000006
v 2.01107562 0 0
v 2.4594143 0 0
v 2.4594143 0 -4.00000006
v 2.01107562 3.50000001 -5
v 2.4594143 3.50000001 -5
v 2.45941401 5 -5
v 2.01107547 5 -5
v 2.01107562 0 0.99999994
v 2.01107547 0 5
v 2.45941401 0 5
v 2.4594143 0 0.99999994
v 6.99999988 0 0.99999994
v 6.99999988 0 5
v 6.99999988 3.50000001 5
v 6.99999988 3.50000001 0.99999994
v 6.99999988 0 -4.00000006
v 6.99999988 0 0
v 6.99999988 3.50000001 0
v 6.99999988 3.50000001 -4.00000006
v 6.00000024 3.50000001 0.99999994
v 6.99999988 3.50000001 0.99999994
v 6.99999988 3.50000001 5
v 6.00000024 3.50000001 5
v 5 3.50000001 0.99999994
v 6.00000024 3.50000001 0.99999994
v 6.00000024 3.50000001 5
v 5 3.50000001 5
v 6.00000024 0 -4.00000006
v 6.99999988 0 -4.00000006
v 6.99999988 3.50000001 -4.00000006
v 6.00000024 3.50000001 -4.00000006
v 6.00000024 0 0
v 6.99999988 0 0
v 6.99999988 0 -4.00000006
v 6.00000024 0 -4.00000006
v 6.99999988 0 0
v 6.99999988 0 0.99999994
v 6.99999988 3.50000001 0.99999994
v 6.99999988 3.50000001 0
v 6.00000024 3.50000001 0
v 6.99999988 3.50000001 0
v 6.99999988 3.50000001 0.99999994
v 6.00000024 3.50000001 0.99999994
v -6.99999988 0 0
v -6.99999988 0 -4.00000006
v -6.99999988 3.50000001 -4.00000006
v -6.99999988 3.50000001 0
v -6.99999988 0 5
v -6.99999988 0 0.99999994
v -6.99999988 3.50000001 0.99999994
v -6.99999988 3.50000001 5
v -6.00000024 0 -4.00000006
v -6.99999988 0 -4.00000006
v -6.99999988 0 0
v -6.00000024 0 0
v -6.00000024 0 0.99999994
v -6.99999988 0 0.99999994
v -6.99999988 0 5
v -6.00000024 0 5
v 5 0 0.99999994
v 6.00000024 0 0.99999994
v 6.00000024 3.50000001 0.99999994
v 5 3.50000001 0.99999994
v 6.00000024 0 0.99999994
v 6.99999988 0 0.99999994
v 6.99999988 0 0
v 6.00000024 0 0
v -6.00000024 3.50000001 5
v -6.99999988 3.50000001 5
v -6.99999988 3.50000001 0.99999994
v -6.00000024 3.50000001 0.99999994
v 5 0 5
v 6.00000024 0 5
v 6.00000024 0 0.99999994
v 5 0 0.99999994
v -5 3.50000001 5
v -6.00000024 3.50000001 5
v -6.00000024 3.50000001 0.99999994
v -5 3.50000001 0.99999994
v -5 0 0.99999994
v -6.00000024 0 0.99999994
v -6.00000024 0 5
v -5 0 5
v -5 3.50000001 0.99999994
v -6.00000024 3.50000001 0.99999994
v -6.00000024 0 0.99999994
v -5 0 0.99999994
v -5 0 0
v -6.00000024 0 0
v -6.00000024 3.50000001 0
v -5 3.50000001 0
v -5 0 -4.00000006
v -6.00000024 0 -4.00000006
v -6.00000024 0 0
v -5 0 0
v -5 3.50000001 0
v -6.00000024 3.50000001 0
v -6.00000024 3.50000001 -4.00000006
v -5 3.50000001 -4.00000006
v -5 3.50000001 -4.00000006
v -6.00000024 3.50000001 -4.00000006
v -6.00000024 0 -4.00000006
v -5 0 -4.00000006
v 5 3.50000001 0
v 6.00000024 3.50000001 0
v 6.00000024 0 0
v 5 0 0
v 5 0 0
v 6.00000024 0 0
v 6.00000024 0 -4.00000006
v 5 0 -4.00000006
v 5 0 -4.00000006
v 6.00000024 0 -4.00000006
v 6.00000024 3.50000001 -4.00000006
v 5 3.50000001 -4.00000006
v 5 3.50000001 -4.00000006
v 6.00000024 3.50000001 -4.00000006
v 6.00000024 3.50000001 0
v 5 3.50000001 0
v 6.00000024 3.50000001 0.99999994
v 6.00000024 0 0.99999994
v 6.00000024 0 0
v 6.00000024 3.50000001 0
v -6.99999988 0 0
v -6.99999988 3.50000001 0
v -6.99999988 3.50000001 0.99999994
v -6.99999988 0 0.99999994
v -6.99999988 0 0
v -6.99999988 0 0.99999994
v -6.00000024 0 0.99999994
v -6.00000024 0 0
v -6.00000024 3.50000001 0.99999994
v -6.99999988 3.50000001 0.99999994
v -6.99999988 3.50000001 0
v -6.00000024 3.50000001 0
v -6.00000024 0 0.99999994
v -6.00000024 3.50000001 0.99999994
v -6.00000024 3.50000001 0
v -6.00000024 0 0
v 2.45941401 4.69999999 0.99999994
v 2.4594143 4.69999999 5
v 2.01107562 4.69999999 5
v 2.01107547 4.69999999 0.99999994
v 2.45941401 4.69999999 -4.00000006
v 2.45941401 4.69999999 0
v 2.01107547 4.69999999 0
v 2.01107547 4.69999999 -4.00000006
v 2.45941401 4.69999999 0
v 2.45941401 4.69999999 0.99999994
v 2.01107547 4.69999999 0.99999994
v 2.01107547 4.69999999 0
v 2.45941401 4.69999999 -5
v 2.45941401 4.69999999 -4.00000006
v 2.01107547 4.69999999 -4.00000006
v 2.01107547 4.69999999 -5
v -2.00000003 4.69999999 -5
v -2.00000003 4.69999999 -4.00000006
v -2.45000005 4.69999999 -4.00000006
v -2.45000005 4.69999999 -5
v -2.00000003 4.69999999 0
v -2.00000003 4.69999999 0.99999994
v -2.45000005 4.69999999 0.99999994
v -2.45000005 4.69999999 0
v -2.00000003 4.69999999 -4.00000006
v -2.00000003 4.69999999 0
v -2.45000005 4.69999999 0
v -2.45000005 4.69999999 -4.00000006
v -2.00000003 4.69999999 0.99999994
v -2.00000003 4.69999999 5
v -2.45000005 4.69999999 5
v -2.45000005 4.69999999 0.99999994
v 2.45941401 5 0
v 2.45941401 4.69999999 0
v 2.45941401 4.69999999 -4.00000006
v 2.45941401 5 -4.00000006
v 2.01107547 5 -4.00000006
v 2.01107547 4.69999999 -4.00000006
v 2.01107547 4.69999999 0
v 2.01107547 5 0
v 2.4594143 5 5
v 2.4594143 4.69999999 5
v 2.45941401 4.69999999 0.99999994
v 2.45941401 5 0.99999994
v 2.01107547 5 0
v 2.01107547 4.69999999 0
v 2.01107547 4.69999999 0.99999994
v 2.01107547 5 0.99999994
v 2.45941401 5 -5
v 2.45941401 4.69999999 -5
v 2.01107547 4.69999999 -5
v 2.01107547 5 -5
v 2.01107547 5 -5
v 2.01107547 4.69999999 -5
v 2.01107547 4.69999999 -4.00000006
v 2.01107547 5 -4.00000006
v 2.01107562 5 5
v 2.01107562 4.69999999 5
v 2.4594143 4.69999999 5
v 2.4594143 5 5
v -2.45000005 5 5
v -2.45000005 4.69999999 5
v -2.00000003 4.69999999 5
v -2.00000003 5 5
v -2.00000003 5 -5
v -2.00000003 4.69999999 -5
v -2.45000005 4.69999999 -5
v -2.45000005 5 -5
v -2.00000003 5 5
v -2.00000003 4.69999999 5
v -2.00000003 4.69999999 0.99999994
v -2.00000003 5 0.99999994
v -2.00000003 5 -4.00000006
v -2.00000003 4.69999999 -4.00000006
v -2.00000003 4.69999999 -5
v -2.00000003 5 -5
v -2.45000005 5 -5
v -2.45000005 4.69999999 -5
v -2.45000005 4.69999999 -4.00000006
v -2.45000005 5 -4.00000006
v 2.01107547 5 -4.00000006
v 2.01107547 5.99999994 -4.00000006
v -2.00000003 5.99999994 -4.00000006
v -2.00000003 5 -4.00000006
v -2.00000003 5 0
v -2.00000003 5.99999994 0
v 2.01107547 5.99999994 0
v 2.01107547 5 0
v 2.01107547 5 0
v 2.01107547 5.99999994 0
v 2.01107547 5.99999994 -4.00000006
v 2.01107547 5 -4.00000006
v 6.99999988 3.50000001 5
v 6.99999988 0 5
v -6.99999988 0 5
v -6.99999988 3.50000001 5
v -5 3.50000001 5
v -5 5 5
v 5 5 5
v 5 3.50000001 5
vn 0 -1 0
vn -1 0 0
vn 1 0 0
vn 0 1 0
vn 0 0 1
vn 0 0 -1
vt 1.95728 2.69032
vt 0.50881 2.69032
vt 0.50881 1.97489
vt 1.95728 1.97489
vt 2.69032 -0.95728
vt 2.69032 0.49119
vt 1.97489 0.49119
vt 1.97489 -0.95728
vt -0.95728 4.88944
vt -0.95728 4.54053
vt -0.24185 4.54053
vt -0.24185 4.88944
vt 2.69032 -2.42336
vt 2.69032 -0.97489
vt 1.97489 -0.97489
vt 1.97489 -2.42336
vt 0.49119 2.69032
vt -0.95728 2.69032
vt -0.95728 1.97489
vt 0.49119 1.97489
vt 4.1564 3.44097
vt 4.1564 4.1564
vt 3.44097 4.1564
vt 3.44097 3.44097
vt 1.95728 -2.42336
vt 1.95728 -0.97489
vt 1.24185 -0.97489
vt 1.24185 -2.42336
vt -1.69032 4.88944
vt -1.69032 4.54053
vt -0.97489 4.54053
vt -0.97489 4.88944
vt 1.22424 -0.95728
vt 1.22424 0.49119
vt 0.50881 0.49119
vt 0.50881 -0.95728
vt -2.44097 3.42336
vt -3.88944 3.42336
vt -3.88944 2.70793
vt -2.44097 2.70793
vt 4.88944 4.1564
vt 4.54053 4.1564
vt 4.54053 3.44097
vt 4.88944 3.44097
vt -2.42336 4.88944
vt -2.42336 4.54053
vt -1.70793 4.54053
vt -1.70793 4.88944
vt 4.88944 3.42336
vt 4.54053 3.42336
vt 4.54053 2.70793
vt 4.88944 2.70793
vt 3.44097 4.52292
vt 3.44097 4.17401
vt 4.1564 4.17401
vt 4.1564 4.52292
vt 4.88944 -3.17401
vt 4.54053 -3.17401
vt 4.54053 -3.88944
vt 4.88944 -3.88944
vt -0.97489 1.95728
vt -2.42336 1.95728
vt -2.42336 1.24185
vt -0.97489 1.24185
vt 4.52292 4.1564
vt 4.17401 4.1564
vt 4.17401 3.44097
vt 4.52292 3.44097
vt -2.07445 3.44097
vt -2.07445 3.78988
vt -2.2401 3.78988
vt -2.2401 3.44097
vt -0.22424 3.78988
vt -0.22424 3.44097
vt 1.22424 3.44097
vt 1.22424 3.78988
vt 3.78988 -2.44097
vt 3.44097 -2.44097
vt 3.44097 -3.88944
vt 3.78988 -3.88944
vt -2.25771 3.44097
vt -2.25771 3.78988
vt -2.42336 3.78988
vt -2.42336 3.44097
vt 0.50881 1.95728
vt 0.50881 1.24185
vt 1.95728 1.24185
vt 1.95728 1.95728
vt 4.52292 1.24185
vt 4.52292 2.69032
vt 4.35727 2.69032
vt 4.35727 1.24185
vt 1.24185 4.70618
vt 1.24185 4.54053
vt 1.95728 4.54053
vt 1.95728 4.70618
vt 4.52292 -0.95728
vt 4.52292 0.49119
vt 4.35727 0.49119
vt 4.35727 -0.95728
vt -0.97489 -2.42336
vt -0.97489 -0.97489
vt -2.42336 -0.97489
vt -2.42336 -2.42336
vt 1.97489 4.33966
vt 1.97489 4.17401
vt 3.42336 4.17401
vt 3.42336 4.33966
vt 4.52292 -0.97489
vt 4.35727 -0.97489
vt 4.35727 -2.42336
vt 4.52292 -2.42336
vt 0.50881 4.33966
vt 0.50881 4.17401
vt 1.95728 4.17401
vt 1.95728 4.33966
vt -1.70793 3.78988
vt -1.87358 3.78988
vt -1.87358 3.44097
vt -1.70793 3.44097
vt 3.05684 -2.44097
vt 2.70793 -2.44097
vt 2.70793 -3.88944
vt 3.05684 -3.88944
vt -2.42336 3.05684
vt -2.42336 2.70793
vt -0.97489 2.70793
vt -0.97489 3.05684
vt 1.95728 -3.88944
vt 1.95728 -2.44097
vt 0.50881 -2.44097
vt 0.50881 -3.88944
vt 2.69032 0.50881
vt 2.69032 1.95728
vt 1.97489 1.95728
vt 1.97489 0.50881
vt 0.49119 -0.95728
vt 0.49119 0.49119
vt -0.95728 0.49119
vt -0.95728 -0.95728
vt -0.97489 -3.88944
vt -0.97489 -2.44097
vt -2.42336 -2.44097
vt -2.42336 -3.88944
vt -0.95728 4.33966
vt -0.95728 4.17401
vt 0.49119 4.17401
vt 0.49119 4.33966
vt 3.05684 0.49119
vt 2.70793 0.49119
vt 2.70793 -0.95728
vt 3.05684 -0.95728
vt -2.42336 3.42336
vt -2.42336 3.07445
vt -0.97489 3.07445
vt -0.97489 3.42336
vt 3.05684 1.95728
vt 2.70793 1.95728
vt 2.70793 0.50881
vt 3.05684 0.50881
vt -0.95728 3.42336
vt -0.95728 3.07445
vt 0.49119 3.07445
vt 0.49119 3.42336
vt 3.42336 -2.44097
vt 3.07445 -2.44097
vt 3.07445 -3.88944
vt 3.42336 -3.88944
vt -2.42336 2.69032
vt -2.42336 1.97489
vt -0.97489 1.97489
vt -0.97489 2.69032
vt 3.42336 0.49119
vt 3.07445 0.49119
vt 3.07445 -0.95728
vt 3.42336 -0.95728
vt 0.50881 3.42336
vt 0.50881 3.07445
vt 1.95728 3.07445
vt 1.95728 3.42336
vt 3.42336 1.95728
vt 3.07445 1.95728
vt 3.07445 0.50881
vt 3.42336 0.50881
vt -3.88944 2.69032
vt -3.88944 1.97489
vt -2.44097 1.97489
vt -2.44097 2.69032
vt 2.69032 -3.88944
vt 2.69032 -2.44097
vt 1.97489 -2.44097
vt 1.97489 -3.88944
vt 3.42336 1.97489
vt 3.42336 2.69032
vt 2.70793 2.69032
vt 2.70793 1.97489
vt 1.95728 1.22424
vt 0.50881 1.22424
vt 0.50881 0.50881
vt 1.95728 0.50881
vt 4.52292 3.42336
vt 4.17401 3.42336
vt 4.17401 2.70793
vt 4.52292 2.70793
vt -1.69032 4.52292
vt -1.69032 4.17401
vt -0.97489 4.17401
vt -0.97489 4.52292
vt 4.33966 2.69032
vt 4.17401 2.69032
vt 4.17401 1.24185
vt 4.33966 1.24185
vt -1.89119 3.78988
vt -2.05684 3.78988
vt -2.05684 3.44097
vt -1.89119 3.44097
vt -2.07445 4.1564
vt -2.2401 4.1564
vt -2.2401 3.80749
vt -2.07445 3.80749
vt -2.25771 4.1564
vt -2.42336 4.1564
vt -2.42336 3.80749
vt -2.25771 3.80749
vt -0.22424 4.70618
vt -0.22424 4.54053
vt 1.22424 4.54053
vt 1.22424 4.70618
vt 4.52292 1.22424
vt 4.17401 1.22424
vt 4.17401 0.50881
vt 4.52292 0.50881
vt -2.42336 4.52292
vt -2.42336 4.17401
vt -1.70793 4.17401
vt -1.70793 4.52292
vt 1.95728 -0.95728
vt 1.95728 0.49119
vt 1.24185 0.49119
vt 1.24185 -0.95728
vt 0.49119 1.95728
vt -0.95728 1.95728
vt -0.95728 1.24185
vt 0.49119 1.24185
vt -1.70793 3.80749
vt -1.70793 4.1564
vt -1.87358 4.1564
vt -1.87358 3.80749
vt -1.89119 3.80749
vt -1.89119 4.1564
vt -2.05684 4.1564
vt -2.05684 3.80749
vt 4.33966 -0.95728
vt 4.33966 0.49119
vt 4.17401 0.49119
vt 4.17401 -0.95728
vt 1.97489 4.70618
vt 1.97489 4.54053
vt 2.69032 4.54053
vt 2.69032 4.70618
vt 4.33966 -2.42336
vt 4.33966 -0.97489
vt 4.17401 -0.97489
vt 4.17401 -2.42336
vt 0.49119 -2.42336
vt 0.49119 -0.97489
vt -0.95728 -0.97489
vt -0.95728 -2.42336
vt -0.97489 -0.22424
vt -0.97489 1.22424
vt -2.42336 1.22424
vt -2.42336 -0.22424
vt -1.69032 4.1564
vt -1.69032 3.80749
vt -0.24185 3.80749
vt -0.24185 4.1564
vt 4.1564 -0.97489
vt 3.80749 -0.97489
vt 3.80749 -2.42336
vt 4.1564 -2.42336
vt -0.22424 4.1564
vt -0.22424 3.80749
vt 1.22424 3.80749
vt 1.22424 4.1564
vt 4.1564 0.49119
vt 3.80749 0.49119
vt 3.80749 -0.95728
vt 4.1564 -0.95728
vt 1.97489 4.1564
vt 1.97489 3.80749
vt 3.42336 3.80749
vt 3.42336 4.1564
vt 2.69032 2.34141
vt 2.69032 2.69032
vt 2.34141 2.69032
vt 2.34141 2.34141
vt 0.49119 -3.88944
vt 0.49119 -2.44097
vt -0.95728 -2.44097
vt -0.95728 -3.88944
vt -2.44097 -0.22424
vt -2.44097 1.22424
vt -3.88944 1.22424
vt -3.88944 -0.22424
vt 4.1564 3.42336
vt 3.80749 3.42336
vt 3.80749 1.97489
vt 4.1564 1.97489
vt -3.88944 4.52292
vt -3.88944 4.17401
vt -2.44097 4.17401
vt -2.44097 4.52292
vt 4.52292 -2.44097
vt 4.17401 -2.44097
vt 4.17401 -3.88944
vt 4.52292 -3.88944
vt 2.3238 2.34141
vt 2.3238 2.69032
vt 1.97489 2.69032
vt 1.97489 2.34141
vt 1.97489 3.78988
vt 1.97489 3.44097
vt 3.42336 3.44097
vt 3.42336 3.78988
vt 3.78988 3.42336
vt 3.44097 3.42336
vt 3.44097 1.97489
vt 3.78988 1.97489
vt -1.69032 3.78988
vt -1.69032 3.44097
vt -0.24185 3.44097
vt -0.24185 3.78988
vt 3.78988 0.49119
vt 3.44097 0.49119
vt 3.44097 -0.95728
vt 3.78988 -0.95728
vt -3.88944 3.78988
vt -3.88944 3.44097
vt -2.44097 3.44097
vt -2.44097 3.78988
vt 3.78988 -0.97489
vt 3.44097 -0.97489
vt 3.44097 -2.42336
vt 3.78988 -2.42336
vt 1.97489 3.42336
vt 1.97489 3.07445
vt 3.42336 3.07445
vt 3.42336 3.42336
vt 4.1564 1.95728
vt 3.80749 1.95728
vt 3.80749 0.50881
vt 4.1564 0.50881
vt -0.95728 3.05684
vt -0.95728 2.70793
vt 0.49119 2.70793
vt 0.49119 3.05684
vt 3.05684 -0.97489
vt 2.70793 -0.97489
vt 2.70793 -2.42336
vt 3.05684 -2.42336
vt 0.50881 3.05684
vt 0.50881 2.70793
vt 1.95728 2.70793
vt 1.95728 3.05684
vt 3.42336 -0.97489
vt 3.07445 -0.97489
vt 3.07445 -2.42336
vt 3.42336 -2.42336
vt 1.97489 3.05684
vt 1.97489 2.70793
vt 3.42336 2.70793
vt 3.42336 3.05684
vt 3.78988 0.50881
vt 3.78988 1.95728
vt 3.44097 1.95728
vt 3.44097 0.50881
vt -2.44097 4.1564
vt -3.88944 4.1564
vt -3.88944 3.80749
vt -2.44097 3.80749
vt 2.69032 1.97489
vt 2.69032 2.3238
vt 2.34141 2.3238
vt 2.34141 1.97489
vt 2.3238 1.97489
vt 2.3238 2.3238
vt 1.97489 2.3238
vt 1.97489 1.97489
vt 4.1564 -3.88944
vt 4.1564 -2.44097
vt 3.80749 -2.44097
vt 3.80749 -3.88944
vt 0.49119 4.52292
vt -0.95728 4.52292
vt -0.95728 4.35727
vt 0.49119 4.35727
vt 4.70618 -3.1564
vt 4.70618 -1.70793
vt 4.54053 -1.70793
vt 4.54053 -3.1564
vt 1.59076 3.44097
vt 1.59076 3.78988
vt 1.42511 3.78988
vt 1.42511 3.44097
vt 1.4075 3.44097
vt 1.4075 3.78988
vt 1.24185 3.78988
vt 1.24185 3.44097
vt 1.95728 3.44097
vt 1.95728 3.78988
vt 1.79163 3.78988
vt 1.79163 3.44097
vt 1.77402 3.44097
vt 1.77402 3.78988
vt 1.60837 3.78988
vt 1.60837 3.44097
vt 1.95728 4.52292
vt 0.50881 4.52292
vt 0.50881 4.35727
vt 1.95728 4.35727
vt 4.70618 -1.69032
vt 4.70618 -0.24185
vt 4.54053 -0.24185
vt 4.54053 -1.69032
vt 1.97489 4.52292
vt 1.97489 4.35727
vt 3.42336 4.35727
vt 3.42336 4.52292
vt 4.70618 1.22424
vt 4.54053 1.22424
vt 4.54053 -0.22424
vt 4.70618 -0.22424
vt -3.88944 4.70618
vt -3.88944 4.54053
vt -2.44097 4.54053
vt -2.44097 4.70618
vt 1.59076 4.1564
vt 1.42511 4.1564
vt 1.42511 3.80749
vt 1.59076 3.80749
vt 4.52292 4.35727
vt 4.52292 4.52292
vt 4.35727 4.52292
vt 4.35727 4.35727
vt 1.4075 4.1564
vt 1.24185 4.1564
vt 1.24185 3.80749
vt 1.4075 3.80749
vt 4.33966 4.35727
vt 4.33966 4.52292
vt 4.17401 4.52292
vt 4.17401 4.35727
vt 4.52292 4.17401
vt 4.52292 4.33966
vt 4.35727 4.33966
vt 4.35727 4.17401
vt 4.33966 4.17401
vt 4.33966 4.33966
vt 4.17401 4.33966
vt 4.17401 4.17401
vt 4.70618 2.69032
vt 4.54053 2.69032
vt 4.54053 1.24185
vt 4.70618 1.24185
vt 1.95728 4.1564
vt 1.79163 4.1564
vt 1.79163 3.80749
vt 1.95728 3.80749
vt 1.77402 4.1564
vt 1.60837 4.1564
vt 1.60837 3.80749
vt 1.77402 3.80749
vt -3.88944 1.95728
vt -3.88944 1.24185
vt -2.44097 1.24185
vt -2.44097 1.95728
vt 1.22424 -0.97489
vt 0.50881 -0.97489
vt 0.50881 -2.42336
vt 1.22424 -2.42336
vt -0.95728 1.22424
vt -0.95728 0.50881
vt 0.49119 0.50881
vt 0.49119 1.22424
vt -2.44097 -0.97489
vt -3.88944 -0.97489
vt -3.88944 -3.88944
vt -2.44097 -3.88944
vt -3.88944 -0.24185
vt -3.88944 -0.95728
vt -0.97489 -0.95728
vt -0.97489 -0.24185
usemtl mat0
f 1/1/1 2/2/1 3/3/1
f 1/1/1 3/3/1 4/4/1
f 5/5/2 6/6/2 7/7/2
f 5/5/2 7/7/2 8/8/2
f 9/9/3 10/10/3 11/11/3
f 9/9/3 11/11/3 12/12/3
f 13/13/4 14/14/4 15/15/4
f 13/13/4 15/15/4 16/16/4
f 17/17/2 18/18/2 19/19/2
f 17/17/2 19/19/2 20/20/2
f 21/21/5 22/22/5 23/23/5
f 21/21/5 23/23/5 24/24/5
f 25/25/4 26/26/4 27/27/4
f 25/25/4 27/27/4 28/28/4
f 29/29/3 30/30/3 31/31/3
f 29/29/3 31/31/3 32/32/3
f 33/33/1 34/34/1 35/35/1
f 33/33/1 35/35/1 36/36/1
f 37/37/3 38/38/3 39/39/3
f 37/37/3 39/39/3 40/40/3
f 41/41/2 42/42/2 43/43/2
f 41/41/2 43/43/2 44/44/2
f 45/45/4 46/46/4 47/47/4
f 45/45/4 47/47/4 48/48/4
f 49/49/1 50/50/1 51/51/1
f 49/49/1 51/51/1 52/52/1
f 53/53/1 54/54/1 55/55/1
f 53/53/1 55/55/1 56/56/1
f 57/57/4 58/58/4 59/59/4
f 57/57/4 59/59/4 60/60/4
f 61/61/3 62/62/3 63/63/3
f 61/61/3 63/63/3 64/64/3
f 65/65/2 66/66/2 67/67/2
f 65/65/2 67/67/2 68/68/2
f 69/69/4 70/70/4 71/71/4
f 69/69/4 71/71/4 72/72/4
f 73/73/1 74/74/1 75/75/1
f 73/73/1 75/75/1 76/76/1
f 77/77/1 78/78/1 79/79/1
f 77/77/1 79/79/1 80/80/1
f 81/81/4 82/82/4 83/83/4
f 81/81/4 83/83/4 84/84/4
f 85/85/3 86/86/3 87/87/3
f 85/85/3 87/87/3 88/88/3
f 89/89/4 90/90/4 91/91/4
f 89/89/4 91/91/4 92/92/4
f 93/93/5 94/94/5 95/95/5
f 93/93/5 95/95/5 96/96/5
f 97/97/4 98/98/4 99/99/4
f 97/97/4 99/99/4 100/100/4
f 101/101/1 102/102/1 103/103/1
f 101/101/1 103/103/1 104/104/1
f 105/105/2 106/106/2 107/107/2
f 105/105/2 107/107/2 108/108/2
f 109/109/2 110/110/2 111/111/2
f 109/109/2 111/111/2 112/112/2
f 113/113/3 114/114/3 115/115/3
f 113/113/3 115/115/3 116/116/3
f 117/117/3 118/118/3 119/119/3
f 117/117/3 119/119/3 120/120/3
f 121/121/4 122/122/4 123/123/4
f 121/121/4 123/123/4 124/124/4
f 125/125/4 126/126/4 127/127/4
f 125/125/4 127/127/4 128/128/4
f 129/129/4 130/130/4 131/131/4
f 129/129/4 131/131/4 132/132/4
f 133/133/5 134/134/5 135/135/5
f 133/133/5 135/135/5 136/136/5
f 137/137/4 138/138/4 139/139/4
f 137/137/4 139/139/4 140/140/4
f 141/141/5 142/142/5 143/143/5
f 141/141/5 143/143/5 144/144/5
f 145/145/5 146/146/5 147/147/5
f 145/145/5 147/147/5 148/148/5
f 149/149/2 150/150/2 151/151/2
f 149/149/2 151/151/2 152/152/2
f 153/153/5 154/154/5 155/155/5
f 153/153/5 155/155/5 156/156/5
f 157/157/2 158/158/2 159/159/2
f 157/157/2 159/159/2 160/160/2
f 161/161/1 162/162/1 163/163/1
f 161/161/1 163/163/1 164/164/1
f 165/165/3 166/166/3 167/167/3
f 165/165/3 167/167/3 168/168/3
f 169/169/5 170/170/5 171/171/5
f 169/169/5 171/171/5 172/172/5
f 173/173/1 174/174/1 175/175/1
f 173/173/1 175/175/1 176/176/1
f 177/177/3 178/178/3 179/179/3
f 177/177/3 179/179/3 180/180/3
f 181/181/4 182/182/4 183/183/4
f 181/181/4 183/183/4 184/184/4
f 185/185/5 186/186/5 187/187/5
f 185/185/5 187/187/5 188/188/5
f 189/189/4 190/190/4 191/191/4
f 189/189/4 191/191/4 192/192/4
f 193/193/5 194/194/5 195/195/5
f 193/193/5 195/195/5 196/196/5
f 197/197/4 198/198/4 199/199/4
f 197/197/4 199/199/4 200/200/4
f 201/201/4 202/202/4 203/203/4
f 201/201/4 203/203/4 204/204/4
f 205/205/4 206/206/4 207/207/4
f 205/205/4 207/207/4 208/208/4
f 209/209/2 210/210/2 211/211/2
f 209/209/2 211/211/2 212/212/2
f 213/213/3 214/214/3 215/215/3
f 213/213/3 215/215/3 216/216/3
f 217/217/2 218/218/2 219/219/2
f 217/217/2 219/219/2 220/220/2
f 221/221/3 222/222/3 223/223/3
f 221/221/3 223/223/3 224/224/3
f 225/225/5 226/226/5 227/227/5
f 225/225/5 227/227/5 228/228/5
f 229/229/1 230/230/1 231/231/1
f 229/229/1 231/231/1 232/232/1
f 233/233/1 234/234/1 235/235/1
f 233/233/1 235/235/1 236/236/1
f 237/237/1 238/238/1 239/239/1
f 237/237/1 239/239/1 240/240/1
f 241/241/1 242/242/1 243/243/1
f 241/241/1 243/243/1 244/244/1
f 245/245/4 246/246/4 247/247/4
f 245/245/4 247/247/4 248/248/4
f 249/249/4 250/250/4 251/251/4
f 249/249/4 251/251/4 252/252/4
f 253/253/4 254/254/4 255/255/4
f 253/253/4 255/255/4 256/256/4
f 257/257/5 258/258/5 259/259/5
f 257/257/5 259/259/5 260/260/5
f 261/261/4 262/262/4 263/263/4
f 261/261/4 263/263/4 264/264/4
f 265/265/2 266/266/2 267/267/2
f 265/265/2 267/267/2 268/268/2
f 269/269/2 270/270/2 271/271/2
f 269/269/2 271/271/2 272/272/2
f 273/273/1 274/274/1 275/275/1
f 273/273/1 275/275/1 276/276/1
f 277/277/1 278/278/1 279/279/1
f 277/277/1 279/279/1 280/280/1
f 281/281/5 282/282/5 283/283/5
f 281/281/5 283/283/5 284/284/5
f 285/285/4 286/286/4 287/287/4
f 285/285/4 287/287/4 288/288/4
f 289/289/2 290/290/2 291/291/2
f 289/289/2 291/291/2 292/292/2
f 293/293/1 294/294/1 295/295/1
f 293/293/1 295/295/1 296/296/1
f 297/297/3 298/298/3 299/299/3
f 297/297/3 299/299/3 300/300/3
f 301/301/3 302/302/3 303/303/3
f 301/301/3 303/303/3 304/304/3
f 305/305/4 306/306/4 307/307/4
f 305/305/4 307/307/4 308/308/4
f 309/309/4 310/310/4 311/311/4
f 309/309/4 311/311/4 312/312/4
f 313/313/5 314/314/5 315/315/5
f 313/313/5 315/315/5 316/316/5
f 317/317/4 318/318/4 319/319/4
f 317/317/4 319/319/4 320/320/4
f 321/321/1 322/322/1 323/323/1
f 321/321/1 323/323/1 324/324/1
f 325/325/4 326/326/4 327/327/4
f 325/325/4 327/327/4 328/328/4
f 329/329/1 330/330/1 331/331/1
f 329/329/1 331/331/1 332/332/1
f 333/333/4 334/334/4 335/335/4
f 333/333/4 335/335/4 336/336/4
f 337/337/5 338/338/5 339/339/5
f 337/337/5 339/339/5 340/340/5
f 341/341/6 342/342/6 343/343/6
f 341/341/6 343/343/6 344/344/6
f 345/345/4 346/346/4 347/347/4
f 345/345/4 347/347/4 348/348/4
f 349/349/1 350/350/1 351/351/1
f 349/349/1 351/351/1 352/352/1
f 353/353/5 354/354/5 355/355/5
f 353/353/5 355/355/5 356/356/5
f 357/357/6 358/358/6 359/359/6
f 357/357/6 359/359/6 360/360/6
f 361/361/4 362/362/4 363/363/4
f 361/361/4 363/363/4 364/364/4
f 365/365/5 366/366/5 367/367/5
f 365/365/5 367/367/5 368/368/5
f 369/369/1 370/370/1 371/371/1
f 369/369/1 371/371/1 372/372/1
f 373/373/3 374/374/3 375/375/3
f 373/373/3 375/375/3 376/376/3
f 377/377/3 378/378/3 379/379/3
f 377/377/3 379/379/3 380/380/3
f 381/381/4 382/382/4 383/383/4
f 381/381/4 383/383/4 384/384/4
f 385/385/1 386/386/1 387/387/1
f 385/385/1 387/387/1 388/388/1
f 389/389/2 390/390/2 391/391/2
f 389/389/2 391/391/2 392/392/2
f 393/393/1 394/394/1 395/395/1
f 393/393/1 395/395/1 396/396/1
f 397/397/1 398/398/1 399/399/1
f 397/397/1 399/399/1 400/400/1
f 401/401/1 402/402/1 403/403/1
f 401/401/1 403/403/1 404/404/1
f 405/405/1 406/406/1 407/407/1
f 405/405/1 407/407/1 408/408/1
f 409/409/1 410/410/1 411/411/1
f 409/409/1 411/411/1 412/412/1
f 413/413/1 414/414/1 415/415/1
f 413/413/1 415/415/1 416/416/1
f 417/417/1 418/418/1 419/419/1
f 417/417/1 419/419/1 420/420/1
f 421/421/1 422/422/1 423/423/1
f 421/421/1 423/423/1 424/424/1
f 425/425/3 426/426/3 427/427/3
f 425/425/3 427/427/3 428/428/3
f 429/429/2 430/430/2 431/431/2
f 429/429/2 431/431/2 432/432/2
f 433/433/3 434/434/3 435/435/3
f 433/433/3 435/435/3 436/436/3
f 437/437/2 438/438/2 439/439/2
f 437/437/2 439/439/2 440/440/2
f 441/441/6 442/442/6 443/443/6
f 441/441/6 443/443/6 444/444/6
f 445/445/2 446/446/2 447/447/2
f 445/445/2 447/447/2 448/448/2
f 449/449/5 450/450/5 451/451/5
f 449/449/5 451/451/5 452/452/5
f 453/453/5 454/454/5 455/455/5
f 453/453/5 455/455/5 456/456/5
f 457/457/6 458/458/6 459/459/6
f 457/457/6 459/459/6 460/460/6
f 461/461/3 462/462/3 463/463/3
f 461/461/3 463/463/3 464/464/3
f 465/465/3 466/466/3 467/467/3
f 465/465/3 467/467/3 468/468/3
f 469/469/2 470/470/2 471/471/2
f 469/469/2 471/471/2 472/472/2
f 473/473/5 474/474/5 475/475/5
f 473/473/5 475/475/5 476/476/5
f 477/477/6 478/478/6 479/479/6
f 477/477/6 479/479/6 480/480/6
f 481/481/2 482/482/2 483/483/2
f 481/481/2 483/483/2 484/484/2
f 485/485/6 486/486/6 487/487/6
f 485/485/6 487/487/6 488/488/6
f 489/489/6 490/490/6 491/491/6
f 489/489/6 491/491/6 492/492/6
# Vertices: 492, normals: 6, texture coordinates: 492, faces: 246

